<?xml version="1.0" encoding="utf-8"?>
<!-- Generator: Adobe Illustrator 18.0.0, SVG Export Plug-In . SVG Version: 6.00 Build 0)  -->
<!DOCTYPE svg PUBLIC "-//W3C//DTD SVG 1.1//EN" "http://www.w3.org/Graphics/SVG/1.1/DTD/svg11.dtd">
<svg version="1.1" id="Layer_1" xmlns="http://www.w3.org/2000/svg" xmlns:xlink="http://www.w3.org/1999/xlink" x="0px" y="0px"
	 viewBox="0 0 64.5 88" enable-background="new 0 0 64.5 88" xml:space="preserve">
<path fill-rule="evenodd" clip-rule="evenodd" fill="#FFFFFF" d="M27,70.8c-0.5-4.8-0.7-9.1-1.4-13.3c-0.3-1.8-1.4-3.5-2.2-5.3
	c-0.1-0.3-0.7-0.3-1.4-0.6c0.4,1.8,0.8,3.3,0.9,4.7c0.3,5.1,0.4,10.1,0.6,15.2c0,0.7,0.2,1.9,0.4,2c1.4,0.2,2.2,2.4,4.2,0.9
	c2.4-1.9,5-3.6,7.6-5.1c2.3-1.3,4.9-2.2,7.3-3.5c1.8-1,3.4-2.2,5-3.6c-4.9-0.3-9.2,2.1-14,3.9c7.4-11.7,10.8-23.8,6.1-36.9
	c-2.7-7.6-6.9-14.5-13.2-19.8c6.9,9,12.9,18.4,12.9,30.4C39.8,51.7,34.2,61.3,27,70.8z"/>
</svg>
